<svg id="Layer_1" data-name="Layer 1" xmlns="http://www.w3.org/2000/svg" viewBox="0 0 264.45 149.4"><defs><style>.cls-1{fill:#333;}</style></defs><path class="cls-1" d="M211,210.09H193.56l-3.31,8h-8.88l16.69-37.44h8.56l16.74,37.44h-9.1Zm-2.73-6.58-5.94-14.33-5.93,14.33Z" transform="translate(-95.05 -138)"/><path class="cls-1" d="M251.12,218.11l-7.22-10.43h-8v10.43h-8.67V180.67h16.21a20.78,20.78,0,0,1,8.64,1.66,12.4,12.4,0,0,1,7.62,11.93,12.22,12.22,0,0,1-7.7,11.82l8.39,12Zm-2.2-28.69a9,9,0,0,0-5.93-1.69h-7.06v13.05H243a9,9,0,0,0,5.93-1.71,6.73,6.73,0,0,0,0-9.65Z" transform="translate(-95.05 -138)"/><path class="cls-1" d="M274.14,216.27a18.57,18.57,0,0,1-7.27-6.9,20.1,20.1,0,0,1,0-20,18.43,18.43,0,0,1,7.27-6.9,21.58,21.58,0,0,1,10.4-2.49,21.83,21.83,0,0,1,8.8,1.71,17.68,17.68,0,0,1,6.61,4.92l-5.56,5.14a12,12,0,0,0-9.42-4.39,12.44,12.44,0,0,0-6.2,1.53,10.82,10.82,0,0,0-4.26,4.25,13.43,13.43,0,0,0,0,12.41,10.88,10.88,0,0,0,4.26,4.25,12.44,12.44,0,0,0,6.2,1.52,11.92,11.92,0,0,0,9.42-4.44l5.56,5.14a17.48,17.48,0,0,1-6.63,5,22.07,22.07,0,0,1-8.83,1.71A21.57,21.57,0,0,1,274.14,216.27Z" transform="translate(-95.05 -138)"/><path class="cls-1" d="M216.8,240.41h8.67v30.38h18.77v7.06H216.8Z" transform="translate(-95.05 -138)"/><path class="cls-1" d="M274.08,269.83H256.7l-3.31,8h-8.88l16.68-37.44h8.56l16.74,37.44H277.4Zm-2.72-6.58-5.94-14.33-5.94,14.33Z" transform="translate(-95.05 -138)"/><path class="cls-1" d="M322.92,261.78a9.39,9.39,0,0,1,1.82,5.86,8.67,8.67,0,0,1-3.83,7.57q-3.82,2.64-11.15,2.64H290.4V240.41h18.29q6.84,0,10.51,2.63a8.29,8.29,0,0,1,3.67,7.11,9,9,0,0,1-5,8.24A9.85,9.85,0,0,1,322.92,261.78ZM299,246.94v8.82h8.61a8.7,8.7,0,0,0,4.87-1.12,3.75,3.75,0,0,0,1.66-3.31,3.68,3.68,0,0,0-1.66-3.29,8.89,8.89,0,0,0-4.87-1.1Zm15.27,23.27a3.85,3.85,0,0,0,1.74-3.48q0-4.65-6.9-4.65H299v9.25h10.11A9.6,9.6,0,0,0,314.28,270.21Z" transform="translate(-95.05 -138)"/><path class="cls-1" d="M335,277.29a20,20,0,0,1-6.66-3.13l2.95-6.52a19.72,19.72,0,0,0,5.72,2.83,21.28,21.28,0,0,0,6.63,1.07,10.64,10.64,0,0,0,5.46-1.09,3.33,3.33,0,0,0,1.76-2.92,2.8,2.8,0,0,0-1-2.22,8,8,0,0,0-2.68-1.42q-1.62-.52-4.41-1.17a63.5,63.5,0,0,1-7-2,11.51,11.51,0,0,1-4.68-3.27,8.81,8.81,0,0,1-1.95-6,10.42,10.42,0,0,1,1.77-5.91,11.91,11.91,0,0,1,5.32-4.2,21.79,21.79,0,0,1,8.69-1.55,28.82,28.82,0,0,1,7,.86,20.68,20.68,0,0,1,6,2.46l-2.68,6.58a20.86,20.86,0,0,0-10.37-2.94,9.78,9.78,0,0,0-5.38,1.17,3.6,3.6,0,0,0-1.74,3.1,3,3,0,0,0,2,2.87,31.53,31.53,0,0,0,6.12,1.84,62.86,62.86,0,0,1,7,2,11.63,11.63,0,0,1,4.68,3.21,8.63,8.63,0,0,1,1.95,5.94,10.2,10.2,0,0,1-1.79,5.86,12.12,12.12,0,0,1-5.37,4.2,22,22,0,0,1-8.72,1.55A30.79,30.79,0,0,1,335,277.29Z" transform="translate(-95.05 -138)"/><path class="cls-1" d="M195.15,266.72a1.74,1.74,0,0,1-.11-.18l-12-19-20.69-32.71V180.66a4,4,0,0,1,3.95-4,5.05,5.05,0,0,0,5-5.06v-4a5.05,5.05,0,0,0-5-5.06H125.8a5.05,5.05,0,0,0-5,5.06v4a5.05,5.05,0,0,0,5,5.06,4,4,0,0,1,3.94,4v34.15l-16.07,25.41L97,266.54a1.74,1.74,0,0,0-.11.18,13.83,13.83,0,0,0,4.83,18.73,13.63,13.63,0,0,0,7.07,1.95h74.43a13.69,13.69,0,0,0,7.08-1.95A13.88,13.88,0,0,0,197,273.84,13.87,13.87,0,0,0,195.15,266.72Zm-11.91,15.62H108.81a8.72,8.72,0,0,1-7.53-13.09l17.28-27.31,16.22-25.65V180.66a9,9,0,0,0-9-9v-4h40.46v4a9,9,0,0,0-9,9v35.63l19.21,30.36,14.3,22.6A8.73,8.73,0,0,1,183.24,282.34Z" transform="translate(-95.05 -138)"/><path class="cls-1" d="M167.38,259.28a2.49,2.49,0,0,0-2.8-.22,2.9,2.9,0,0,0-1,1,5.9,5.9,0,0,0-.65,1.73,11,11,0,0,0-.24,2.46v.44c0,.14,0,.28,0,.42l5.72-4.14A3.77,3.77,0,0,0,167.38,259.28Z" transform="translate(-95.05 -138)"/><path class="cls-1" d="M129.43,263.53l-5.68,4.1a3.47,3.47,0,0,0,1,1.68,2.41,2.41,0,0,0,1.58.55,2.32,2.32,0,0,0,1.22-.34,2.92,2.92,0,0,0,1-1,5.73,5.73,0,0,0,.64-1.72,11.14,11.14,0,0,0,.24-2.46c0-.13,0-.27,0-.4S129.43,263.65,129.43,263.53Z" transform="translate(-95.05 -138)"/><path class="cls-1" d="M168.86,263.53l-5.69,4.1a3.47,3.47,0,0,0,1.05,1.68,2.41,2.41,0,0,0,1.58.55,2.32,2.32,0,0,0,1.22-.34,2.83,2.83,0,0,0,1-1,6,6,0,0,0,.65-1.72,11.83,11.83,0,0,0,.23-2.46c0-.13,0-.27,0-.4S168.86,263.65,168.86,263.53Z" transform="translate(-95.05 -138)"/><path class="cls-1" d="M188.62,270.56l-16.33-25.81c-3.77-2.21-6.73-4.92-14-4.92-12.25,0-12.25,7.69-24.51,7.69-6.64,0-9.68-2.25-13-4.32l-17.31,27.36a6.19,6.19,0,0,0,5.37,9.25h74.43a6.2,6.2,0,0,0,5.38-9.25Zm-56.7-3a7,7,0,0,1-1.2,2.5,5.18,5.18,0,0,1-1.92,1.56,6.35,6.35,0,0,1-4.91.09,4.57,4.57,0,0,1-1.83-1.39,6.87,6.87,0,0,1-1.2-2.44,12.65,12.65,0,0,1-.43-3.54,12.4,12.4,0,0,1,.41-3.37,7.27,7.27,0,0,1,1.2-2.5,5.18,5.18,0,0,1,1.92-1.56,6.15,6.15,0,0,1,2.59-.53,5.85,5.85,0,0,1,2.32.44,4.66,4.66,0,0,1,1.83,1.39,6.91,6.91,0,0,1,1.2,2.43,13.14,13.14,0,0,1,.43,3.56A12.78,12.78,0,0,1,131.92,267.59Zm13,4.33H134.72v-2.54h3.89v-9.8l-3.39,1.87-.93-2.32,4.84-2.56h2.39v12.81h3.35Zm13.14,0H147.86v-2.54h3.89v-9.8l-3.39,1.87-.93-2.32,4.84-2.56h2.4v12.81H158Zm13.33-4.33a7.17,7.17,0,0,1-1.19,2.5,5.34,5.34,0,0,1-1.92,1.56,6.37,6.37,0,0,1-4.92.09,4.57,4.57,0,0,1-1.83-1.39,7,7,0,0,1-1.2-2.44,12.65,12.65,0,0,1-.43-3.54,12.4,12.4,0,0,1,.41-3.37,7.45,7.45,0,0,1,1.2-2.5,5.18,5.18,0,0,1,1.92-1.56,6.18,6.18,0,0,1,2.59-.53,5.93,5.93,0,0,1,2.33.44,4.7,4.7,0,0,1,1.82,1.39,6.91,6.91,0,0,1,1.2,2.43,14.46,14.46,0,0,1,0,6.92Z" transform="translate(-95.05 -138)"/><path class="cls-1" d="M128,259.28a2.41,2.41,0,0,0-1.58-.55,2.38,2.38,0,0,0-1.22.33,2.81,2.81,0,0,0-1,1,5.63,5.63,0,0,0-.65,1.73,11,11,0,0,0-.24,2.46v.44a3,3,0,0,0,0,.42L129,261A3.77,3.77,0,0,0,128,259.28Z" transform="translate(-95.05 -138)"/><ellipse class="cls-1" cx="41.28" cy="96.39" rx="4.98" ry="5"/><ellipse class="cls-1" cx="57.47" cy="89.98" rx="4.11" ry="4.13"/><ellipse class="cls-1" cx="48.01" cy="77" rx="2.98" ry="2.99"/><ellipse class="cls-1" cx="62.58" cy="16.84" rx="4.98" ry="5"/><ellipse class="cls-1" cx="50.65" cy="4.13" rx="4.11" ry="4.13"/><ellipse class="cls-1" cx="42.13" cy="17.75" rx="2.98" ry="2.99"/></svg>